<?xml version="1.0" encoding="iso-8859-1"?>
<!-- Generator: Adobe Illustrator 16.0.0, SVG Export Plug-In . SVG Version: 6.00 Build 0)  -->
<!DOCTYPE svg PUBLIC "-//W3C//DTD SVG 1.1//EN" "http://www.w3.org/Graphics/SVG/1.1/DTD/svg11.dtd">
<svg version="1.1" id="Capa_1" xmlns="http://www.w3.org/2000/svg" xmlns:xlink="http://www.w3.org/1999/xlink" x="0px" y="0px"
	 width="575.793px" height="575.793px" viewBox="0 0 575.793 575.793" style="enable-background:new 0 0 575.793 575.793;"
	 xml:space="preserve">
<g>
	<g>
		<path d="M326.656,327.771v48.254c64.861-17.174,112.814-76.348,112.814-146.532c0-83.578-67.996-151.574-151.575-151.574
			c-83.578,0-151.574,67.997-151.574,151.574c0,70.184,47.957,129.362,112.816,146.532v-48.254
			c-39.144-15.492-66.916-53.69-66.916-98.278c0-58.269,47.405-105.674,105.674-105.674c58.268,0,105.674,47.405,105.674,105.674
			C393.57,274.081,365.797,312.279,326.656,327.771z"/>
		<path d="M517.391,229.494C517.391,102.951,414.439,0,287.896,0S58.402,102.951,58.402,229.494
			c0,113.331,82.592,207.672,190.732,226.153v-46.715c-82.678-17.842-144.833-91.502-144.833-179.438
			c0-101.234,82.36-183.594,183.594-183.594c101.235,0,183.594,82.36,183.594,183.594c0,87.936-62.154,161.596-144.834,179.438
			v46.715C434.797,437.166,517.391,342.824,517.391,229.494z"/>
		<path d="M264.435,379.246v32.291v46.26v117.996h46.918V457.797v-46.26v-32.291v-46.734v-31.906
			c2.617-0.867,5.168-1.873,7.65-3.012c2.631-1.209,5.193-2.545,7.65-4.035c21.643-13.146,36.135-36.944,36.135-64.065
			c0-41.298-33.596-74.896-74.896-74.896c-41.301,0-74.894,33.599-74.894,74.896c0,27.121,14.489,50.921,36.135,64.065
			c2.458,1.492,5.019,2.83,7.65,4.035c2.481,1.139,5.034,2.145,7.65,3.012v31.906V379.246z M259.958,221.844
			c0.75-2.732,1.885-5.3,3.354-7.65c5.125-8.207,14.217-13.697,24.584-13.697c10.368,0,19.459,5.49,24.584,13.697
			c1.465,2.35,2.604,4.917,3.354,7.65c0.67,2.442,1.059,5,1.059,7.65c0,6.34-2.068,12.194-5.535,16.971
			c-5.273,7.271-13.812,12.023-23.461,12.023c-9.648,0-18.186-4.755-23.461-12.023c-3.467-4.776-5.536-10.63-5.536-16.971
			C258.899,226.844,259.288,224.286,259.958,221.844z"/>
	</g>
</g>
<g>
</g>
<g>
</g>
<g>
</g>
<g>
</g>
<g>
</g>
<g>
</g>
<g>
</g>
<g>
</g>
<g>
</g>
<g>
</g>
<g>
</g>
<g>
</g>
<g>
</g>
<g>
</g>
<g>
</g>
</svg>
